<svg width="22" height="18" fill="none" xmlns="http://www.w3.org/2000/svg"><path d="M.479 17.788c.188.14.916.526 1.53-.306l4.159-6.517 4.402 4.553c.231.237.55.364.872.323.318-.034.61-.213.798-.497l7.3-11.226.264 3.755c.064.954.9 1.11 1.18 1.087.603-.052 1.061-.613 1.012-1.266l-.463-6.604c-.043-.647-.57-1.138-1.18-1.086L14.195.5c-.603.046-1.06.612-1.013 1.265.044.647.566 1.133 1.18 1.086l3.502-.283-6.691 10.285L6.761 8.29a1.033 1.033 0 00-.873-.323c-.323.035-.614.22-.797.508L.193 16.148c-.344.537-.215 1.27.286 1.64z" fill="#000"/></svg>