<svg width="35" height="17" viewBox="0 0 35 17" fill="none" xmlns="http://www.w3.org/2000/svg">
<path d="M0.400997 9.46779C0.401405 9.4682 0.401749 9.46868 0.402225 9.46909L7.54605 16.5784C8.08124 17.111 8.94687 17.109 9.4796 16.5738C10.0123 16.0386 10.0102 15.173 9.47502 14.6403L4.67865 9.86721H33.6328C34.3879 9.86721 35 9.25512 35 8.50003C35 7.74493 34.3879 7.13284 33.6328 7.13284H4.67872L9.47495 2.35973C10.0101 1.82707 10.0122 0.961441 9.47953 0.426258C8.94681 -0.109064 8.0811 -0.110909 7.54599 0.42161L0.402157 7.53097C0.401749 7.53138 0.401405 7.53185 0.400928 7.53226C-0.134533 8.0667 -0.132824 8.93513 0.400997 9.46779Z" fill="#84C7AE"/>
</svg>
