<svg width="50" height="58" viewBox="0 0 50 58" fill="none" xmlns="http://www.w3.org/2000/svg">
<path d="M26.3106 22.7276V25.6023C26.3106 26.5153 26.493 27.2813 26.8528 27.8781C27.3493 28.7016 28.1641 29.1736 29.0894 29.1736C29.9958 29.1736 30.8966 28.7322 31.7664 27.8624L41.2613 18.3676C43.346 16.2829 43.346 12.8908 41.2613 10.8061L31.7664 1.31128C30.8966 0.44102 29.9958 0 29.0894 0C27.7061 0 26.3106 1.10451 26.3106 3.57135V6.18214C12.8305 6.97824 1.67107 17.3232 0.0125564 30.8675C-0.0803588 31.6239 0.349756 32.348 1.05862 32.6285C1.25928 32.7079 1.46823 32.7463 1.67456 32.7463C2.19716 32.7463 2.70405 32.5016 3.02685 32.0606C7.47544 25.9822 14.6181 22.3533 22.1334 22.3533C23.5258 22.3533 24.9261 22.4789 26.3106 22.7276Z" fill="#038992"/>
<path d="M48.9408 24.5475C48.232 24.2666 47.4232 24.5004 46.9726 25.1159C42.5244 31.1938 35.3817 34.8227 27.8665 34.8227C26.4741 34.8227 25.0738 34.6971 23.6893 34.4485V31.5738C23.6893 29.1069 22.2934 28.0024 20.9105 28.0024C20.0041 28.0024 19.1033 28.4439 18.233 29.3141L8.7382 38.8085C6.65393 40.8932 6.65393 44.2853 8.73863 46.3704L18.233 55.8648C19.1033 56.735 20.0041 57.1761 20.9105 57.1761C22.2934 57.1761 23.6893 56.0715 23.6893 53.6047V50.9939C37.1698 50.1978 48.3288 39.8528 49.9873 26.309C50.0802 25.5522 49.6501 24.828 48.9408 24.5475Z" fill="#038992"/>
</svg>
