<svg width="50" height="50" viewBox="0 0 50 50" fill="none" xmlns="http://www.w3.org/2000/svg">
<path d="M42.3032 0.000289206C42.2453 0.00172269 42.1877 0.00889012 42.1313 0.0216812L7.45857 8.84314C7.06447 8.934 6.78273 9.28123 6.7749 9.68558V41.6369H19.3278V28.7355H30.6546V41.6545H43.2075V0.859719C43.1952 0.372665 42.7903 -0.0120608 42.3032 0.000289206ZM15.8081 24.488H11.5297V20.2052H15.8125L15.8081 24.488ZM15.8081 16.928H11.5297V12.6364H15.8125L15.8081 16.928ZM23.3548 24.488H19.072V20.2052H23.3548V24.488ZM23.3548 16.928H19.072V12.6364H23.3548V16.928ZM30.9104 24.488H26.6276V20.2052H30.9104V24.488ZM30.9104 16.9192H26.6276V12.6364H30.9104V16.9192ZM38.4572 24.4792H34.1743V20.1963H38.4572V24.4792ZM38.4572 16.9192H34.1743V12.6364H38.4572V16.9192Z" fill="#E6F3F4"/>
<path d="M43.8603 42.9727H43.8426H6.13973C2.75681 42.992 0.0192969 45.7296 0 49.1124C0 49.5996 0.394981 49.9945 0.882145 49.9945H49.1179C49.605 49.9945 50 49.5996 50 49.1124C49.9807 45.7296 47.2432 42.992 43.8603 42.9727Z" fill="#E6F3F4"/>
</svg>
