<svg width="50" height="61" viewBox="0 0 50 61" fill="none" xmlns="http://www.w3.org/2000/svg">
<path d="M29.1001 40.0427C28.875 39.7961 28.5902 39.6117 28.2959 39.4581C27.655 39.124 26.9542 38.9213 26.2583 38.7383V44.1306C27.3878 44.0029 28.6845 43.593 29.2776 42.5385C29.5607 42.0348 29.617 41.416 29.5017 40.8553C29.4391 40.5515 29.3099 40.2726 29.1001 40.0427Z" fill="#E6F3F4"/>
<path d="M29.2715 42.5484C29.2738 42.5446 29.275 42.5422 29.2774 42.5381C29.2755 42.5415 29.2735 42.5449 29.2715 42.5484Z" fill="#E6F3F4"/>
<path d="M20.9599 31.4229C20.7658 31.7065 20.6439 32.0286 20.6103 32.371C20.5767 32.7141 20.5956 33.0958 20.7259 33.4188C20.85 33.7266 21.11 33.9538 21.3784 34.1368C21.6795 34.3416 22.0107 34.5016 22.348 34.6372C22.631 34.7511 22.9493 34.8601 23.2924 34.9653V30.0859C22.4256 30.2709 21.4785 30.6658 20.9599 31.4229Z" fill="#E6F3F4"/>
<path d="M29.2996 42.499C29.2925 42.5116 29.2849 42.5248 29.2773 42.5387C29.2861 42.5226 29.2931 42.5107 29.2996 42.499Z" fill="#E6F3F4"/>
<path d="M29.3281 42.448C29.33 42.4446 29.3303 42.4443 29.3281 42.448V42.448Z" fill="#E6F3F4"/>
<path d="M28.1578 13.116C32.7434 9.26384 35.8075 0.585499 33.9219 0.205929C31.4164 -0.298604 25.9756 1.91371 23.3458 2.30349C19.6159 2.75384 15.5536 -1.74114 13.2733 0.764363C11.4193 2.8015 14.6025 10.2099 19.5827 13.4374C4.72446 20.74 -16.1598 57.3997 20.2739 60.0597C70.6863 63.7404 45.443 20.2322 28.1578 13.116ZM32.4873 42.0276C32.3322 43.4568 31.5748 44.7493 30.4426 45.6267C29.2472 46.5532 27.7477 46.9841 26.258 47.1048V48.684C26.258 49.1065 26.0734 49.5152 25.7571 49.7949C25.3224 50.1796 24.6835 50.2744 24.1559 50.0313C23.6349 49.7916 23.2926 49.2573 23.2926 48.684V46.958C23.0372 46.9095 22.7835 46.8518 22.5329 46.783C21.1406 46.4004 19.8491 45.6548 18.9057 44.5515C18.4358 44.0016 18.0527 43.3776 17.7877 42.704C17.7185 42.528 17.6568 42.3487 17.6028 42.1674C17.5538 42.0033 17.5033 41.8365 17.4859 41.6655C17.4565 41.3785 17.5134 41.0857 17.6472 40.8301C17.922 40.3043 18.5013 39.9868 19.0928 40.0395C19.6749 40.0912 20.1851 40.4951 20.3684 41.05C20.4249 41.2209 20.4631 41.3961 20.5266 41.5652C20.5894 41.7331 20.6653 41.8964 20.7545 42.0518C20.9307 42.3579 21.1514 42.6402 21.4055 42.8852C21.9295 43.39 22.5969 43.7181 23.2926 43.9132V38.0464C21.9322 37.6942 20.528 37.2393 19.4046 36.3658C18.8586 35.9411 18.3954 35.4135 18.092 34.7889C17.7718 34.1298 17.6392 33.3955 17.6338 32.6661C17.6283 31.9256 17.769 31.1915 18.0779 30.5168C18.3673 29.885 18.7839 29.3178 19.2947 28.8476C20.3868 27.8424 21.8376 27.2817 23.2928 27.0757V26.9466V25.4364C23.2928 25.014 23.4773 24.6052 23.7936 24.3255C24.2285 23.941 24.8671 23.8459 25.3949 24.0891C25.9157 24.3289 26.2581 24.8631 26.2581 25.4364V26.9466V27.0668C26.452 27.0912 26.6453 27.1204 26.8377 27.1553C28.2666 27.4138 29.6642 28.0039 30.7091 29.0341C31.2042 29.5221 31.6094 30.1035 31.8944 30.7375C31.9739 30.9144 32.0436 31.0954 32.1039 31.2799C32.16 31.452 32.2165 31.6291 32.2433 31.8087C32.2861 32.0954 32.2424 32.3915 32.1198 32.6538C31.8684 33.1911 31.3047 33.5332 30.7117 33.5078C30.129 33.4824 29.6011 33.103 29.3924 32.5583C29.3303 32.3963 29.2992 32.2249 29.2358 32.0633C29.1718 31.8998 29.089 31.7437 28.9935 31.5964C28.808 31.3098 28.5676 31.0642 28.2931 30.8618C27.6988 30.4229 26.978 30.1942 26.2577 30.0664V35.6808C27.1137 35.8858 27.9704 36.1094 28.7906 36.4328C30.0301 36.9215 31.2047 37.671 31.8813 38.8529C31.7764 38.6688 31.6742 38.4893 31.8849 38.859C32.0917 39.2221 31.9929 39.049 31.8891 38.8671C32.4274 39.8157 32.6043 40.95 32.4873 42.0276Z" fill="#E6F3F4"/>
<path d="M29.2555 42.5771C29.2469 42.5926 29.2394 42.6062 29.2334 42.6166C29.2385 42.6076 29.2462 42.5942 29.2555 42.5771Z" fill="#E6F3F4"/>
</svg>
