<svg width="50" height="33" viewBox="0 0 50 33" fill="none" xmlns="http://www.w3.org/2000/svg">
<path d="M34.1102 24.5352H15.89L14.2739 28.4614L13.9937 29.1422H17.5068C17.5019 29.1114 17.4974 29.0805 17.4974 29.0485V28.4614V27.3451C17.4974 27.0155 17.7645 26.7482 18.0943 26.7482C18.4239 26.7482 18.6912 27.0154 18.6912 27.3451V28.4614V29.0485C18.6912 29.0805 18.6867 29.1114 18.6818 29.1422H24.4127C24.4078 29.1114 24.4032 29.0805 24.4032 29.0485V28.4614V27.3451C24.4032 27.0155 24.6704 26.7482 25.0002 26.7482C25.3298 26.7482 25.5971 27.0154 25.5971 27.3451V28.4614V29.0485C25.5971 29.0805 25.5925 29.1114 25.5876 29.1422H31.3185C31.3136 29.1114 31.3091 29.0805 31.3091 29.0485V28.4614V27.3451C31.3091 27.0155 31.5763 26.7482 31.906 26.7482C32.2358 26.7482 32.5029 27.0154 32.5029 27.3451V28.4614V29.0485C32.5029 29.0805 32.4984 29.1114 32.4935 29.1422H36.0067L35.7264 28.4614L34.1102 24.5352Z" fill="#E6F3F4"/>
<path d="M49.6529 9.21067C49.534 8.86464 49.1127 8.59543 48.761 8.59543C47.2381 8.59543 45.7152 8.59543 44.1924 8.59543C43.8406 8.59543 43.4194 8.86476 43.3005 9.21067C43.1371 9.6864 43.0326 10.0897 42.9847 10.4726C40.9751 6.60337 38.7499 2.2968 38.7499 2.2968C38.5311 1.68527 38.0026 1.23742 37.3636 1.12184C33.2477 0.377376 29.0883 0 25.0011 0C20.9141 0 16.7539 0.377376 12.6364 1.12184C11.9974 1.2373 11.4687 1.68527 11.2499 2.29668C11.2499 2.29668 9.02461 6.60337 7.01509 10.4725C6.96711 10.0897 6.86265 9.68628 6.69921 9.21055C6.5804 8.86452 6.15911 8.59531 5.80746 8.59531C4.28467 8.59531 2.76164 8.59531 1.23886 8.59531C0.887206 8.59531 0.465918 8.86464 0.346866 9.21055C-0.115821 10.5576 -0.115462 11.3288 0.346985 12.676C0.465918 13.022 0.887206 13.2912 1.23886 13.2912C2.75889 13.2912 4.27893 13.2912 5.79884 13.2912C5.7998 13.3482 5.80303 13.4049 5.80937 13.4616C4.84774 13.7533 4.14767 14.646 4.14767 15.7029V25.5353V26.1182V31.1795C4.14767 31.8013 4.65152 32.3054 5.27346 32.3054H10.9403C11.5622 32.3054 12.0662 31.8013 12.0662 31.1795V28.4608H12.9829L14.9382 23.7105C15.0303 23.4867 15.2482 23.3407 15.4901 23.3407H34.51C34.7519 23.3407 34.9699 23.4867 35.0619 23.7105L37.0171 28.4608H37.9338V31.1795C37.9338 31.8013 38.4378 32.3054 39.0597 32.3054H44.7265C45.3484 32.3054 45.8523 31.8013 45.8523 31.1795V26.1182V25.5353V15.7029C45.8523 14.646 45.1523 13.7533 44.1906 13.4616C44.197 13.4049 44.2002 13.3482 44.2011 13.2912C45.7211 13.2912 47.2411 13.2912 48.7611 13.2912C49.1128 13.2912 49.5341 13.0221 49.6531 12.676C50.1157 11.329 50.1155 10.5577 49.6529 9.21067ZM13.7619 3.62325C13.7619 3.62325 16.4829 2.93263 24.9999 2.93263C33.517 2.93263 36.2378 3.62325 36.2378 3.62325L40.2318 13.2913H9.76812L13.7619 3.62325ZM8.79811 20.3525V17.176H15.6779L17.722 20.3525H8.79811ZM41.2016 20.3525H32.2778L34.3219 17.176H41.2016V20.3525Z" fill="#E6F3F4"/>
</svg>
