<svg width="22" height="18" viewBox="0 0 22 18" fill="none" xmlns="http://www.w3.org/2000/svg">
<path d="M0.478846 17.7885C0.667408 17.9272 1.39472 18.3143 2.00889 17.4822L6.16803 10.9647L10.5696 15.5177C10.8013 15.7546 11.1191 15.8817 11.4424 15.8413C11.7602 15.8066 12.0512 15.6275 12.2397 15.3444L19.5398 4.11772L19.8038 7.87342C19.8684 8.82679 20.7035 8.9828 20.9836 8.95969C21.587 8.90769 22.045 8.34722 21.9965 7.6943L21.5332 1.09004C21.4901 0.442906 20.9621 -0.0482243 20.3533 0.00377779L14.1954 0.500686C13.592 0.54691 13.1341 1.11316 13.1825 1.76607C13.2256 2.41321 13.7482 2.89856 14.3624 2.85234L17.8643 2.56921L11.173 12.8541L6.76066 8.28944C6.529 8.04676 6.20575 7.92543 5.88789 7.96587C5.56464 8.00054 5.27371 8.18544 5.09054 8.47434L0.193309 16.1475C-0.15149 16.6849 -0.0221905 17.4187 0.478846 17.7885Z" fill="black"/>
</svg>
