<svg width="30" height="30" viewBox="0 0 30 30" fill="none" xmlns="http://www.w3.org/2000/svg">
<path d="M14.9997 21.0811C14.161 21.0811 13.458 21.8501 13.458 22.7676C13.458 23.6851 14.161 24.4541 14.9997 24.4541C15.8076 24.4541 16.5415 23.6851 16.5045 22.8081C16.5415 21.8434 15.8446 21.0811 14.9997 21.0811Z" fill="#038992"/>
<path d="M29.27 27.0587C30.2382 25.2305 30.2444 23.0515 29.2823 21.23L19.6249 2.93456C18.669 1.09287 16.9422 0 15.0058 0C13.0694 0 11.3426 1.09962 10.3867 2.92782L0.716939 21.2435C-0.245107 23.0852 -0.23894 25.2777 0.73544 27.1059C1.69749 28.9139 3.41807 30 5.34216 30H24.6324C26.5627 30 28.2956 28.9004 29.27 27.0587ZM27.1732 25.7365C26.6367 26.7484 25.687 27.3488 24.6263 27.3488H5.336C4.28761 27.3488 3.34407 26.7619 2.81987 25.7702C2.28951 24.765 2.28335 23.5642 2.81371 22.5523L12.4835 4.24331C13.0077 3.23814 13.9451 2.64448 15.0058 2.64448C16.0603 2.64448 17.0039 3.24488 17.5281 4.25006L27.1917 22.559C27.7097 23.544 27.7036 24.7313 27.1732 25.7365Z" fill="#038992"/>
<path d="M14.617 9.24293C13.8831 9.47229 13.4268 10.2009 13.4268 11.0846C13.4638 11.6176 13.4946 12.1572 13.5316 12.6902C13.6364 14.7208 13.7413 16.7109 13.8461 18.7415C13.8831 19.4296 14.3703 19.9288 14.9993 19.9288C15.6284 19.9288 16.1217 19.3958 16.1526 18.701C16.1526 18.2827 16.1526 17.8982 16.1896 17.4732C16.2574 16.1712 16.3314 14.8692 16.3992 13.5672C16.4362 12.7239 16.5041 11.8807 16.5411 11.0374C16.5411 10.7338 16.5041 10.464 16.3992 10.1941C16.0847 9.43856 15.3508 9.05403 14.617 9.24293Z" fill="#038992"/>
</svg>
