<svg width="19" height="11" viewBox="0 0 19 11" fill="none" xmlns="http://www.w3.org/2000/svg">
<path fill-rule="evenodd" clip-rule="evenodd" d="M17.0731 0.201759L8.62371 9.04108L8.55189 9.13116C8.38591 9.38338 8.42392 9.72246 8.65773 9.93337C8.92078 10.1706 9.33202 10.1558 9.57627 9.90032L18.0256 1.06101L18.0974 0.970918C18.2634 0.718706 18.2254 0.379622 17.9916 0.168711C17.7286 -0.0685628 17.3173 -0.0537667 17.0731 0.201759ZM12.5248 0.199978L4.4661 8.55164L1.12071 5.13778L1.03257 5.06259C0.783656 4.88612 0.432921 4.90209 0.201817 5.1158C-0.0581738 5.35623 -0.0683021 5.75588 0.179195 6.00844L3.99899 9.90641L4.09081 9.98422C4.35033 10.1656 4.7169 10.1382 4.94394 9.90288L13.4732 1.06356L13.5455 0.9738C13.7127 0.722347 13.6763 0.383094 13.4435 0.17112C13.1816 -0.0673517 12.7703 -0.0544314 12.5248 0.199978Z" fill="#7F807F"/>
</svg>
