<svg width="50" height="50" viewBox="0 0 50 50" fill="none" xmlns="http://www.w3.org/2000/svg">
<path d="M36.5069 25.6397H27.9131C26.5778 25.6397 25.353 25.0484 24.5336 24.0625L22.6284 27.2825H26.5317C29.3031 27.2825 31.3823 29.8084 30.857 32.5251L30.6436 33.6275C31.1635 33.6617 31.6862 33.6784 32.21 33.6784C35.708 33.6784 40.7059 32.2598 43.8701 30.7971L39.8865 24.0625C39.067 25.0484 37.8423 25.6397 36.5069 25.6397Z" fill="#E6F3F4"/>
<path d="M30.0817 36.5314L29.4512 39.7867C30.3607 39.8904 31.2809 39.9433 32.21 39.9433C36.7977 39.9433 42.9929 37.672 46.5966 35.4056L45.3719 33.335C41.9581 34.9621 36.3571 36.6147 32.21 36.6147C31.4973 36.6147 30.7875 36.5863 30.0817 36.5314Z" fill="#E6F3F4"/>
<path d="M49.7805 40.7884L48.0917 37.9336C44.0405 40.4594 37.3578 42.8805 32.2101 42.8805C31.093 42.8805 29.9858 42.813 28.8922 42.6779C27.6181 49.2588 27.7126 48.7891 27.6675 48.9612C36.2258 50.4236 44.7766 47.5106 49.5621 42.6084C50.0263 42.1556 50.1568 41.3926 49.7805 40.7884Z" fill="#E6F3F4"/>
<path d="M21.4295 8.93741C21.4646 9.21751 21.1579 8.38711 26.5517 21.7821C26.7749 22.3382 27.3144 22.7023 27.9135 22.7023H36.5073C37.1065 22.7023 37.6459 22.3382 37.8691 21.7821C42.8726 9.35653 42.8984 9.29407 42.9022 9.28399C43.0365 8.93879 43.0326 8.57635 42.9247 8.27071C42.6765 7.50267 41.3802 6.42693 40.5536 5.97296V1.46852C40.5536 0.657897 39.8967 0 39.0851 0C38.2744 0 37.6165 0.657897 37.6165 1.46852V5.16136C35.4496 5.08539 33.4647 6.05481 32.2104 7.6226C30.9465 6.04277 28.9562 5.08598 26.8043 5.16136V1.46852C26.8043 0.657897 26.1464 0 25.3358 0C24.5242 0 23.8673 0.657897 23.8673 1.46852V5.97296C22.9682 6.46678 21.7279 7.55358 21.4961 8.27071C21.4194 8.48785 21.4003 8.73221 21.4295 8.93741Z" fill="#E6F3F4"/>
<path d="M0.0271266 31.9673L3.15997 48.1533C3.29409 48.8435 3.89815 49.3428 4.60206 49.3428H7.13476C7.12223 46.3371 7.06565 53.182 7.13672 30.2197H1.46921C0.547276 30.2197 -0.148019 31.0608 0.0271266 31.9673Z" fill="#E6F3F4"/>
<path d="M10.0728 49.3419H17.9294L17.9568 43.0762H10.0454L10.0728 49.3419Z" fill="#E6F3F4"/>
<path d="M10.0435 40.1401H17.9578L17.9265 30.2197H10.0748L10.0435 40.1401Z" fill="#E6F3F4"/>
<path d="M26.5318 30.2197H20.8643C20.9372 53.7666 20.8802 45.9542 20.8662 49.3428H23.3989C24.1028 49.3428 24.7069 48.8435 24.841 48.1533L27.9739 31.9673C28.1487 31.0623 27.4551 30.2197 26.5318 30.2197Z" fill="#E6F3F4"/>
<path d="M18.8782 23.3618C14.5404 19.0281 7.10156 22.1361 7.10156 28.2413L7.13681 30.2189H10.0748L10.0386 28.2413C10.0386 26.0566 11.8159 24.2792 14.0007 24.2792C16.1902 24.2792 17.9627 26.0508 17.9627 28.2413L17.9265 30.2189H20.8645C20.8971 28.391 21.2644 25.7477 18.8782 23.3618Z" fill="#E6F3F4"/>
</svg>
