<svg width="50" height="50" viewBox="0 0 50 50" fill="none" xmlns="http://www.w3.org/2000/svg">
<path d="M36.5072 25.6397H27.9134C26.578 25.6397 25.3533 25.0484 24.5338 24.0625L22.6287 27.2825H26.532C29.3034 27.2825 31.3825 29.8084 30.8573 32.5251L30.6438 33.6275C31.1637 33.6617 31.6865 33.6784 32.2103 33.6784C35.7083 33.6784 40.7061 32.2598 43.8703 30.7971L39.8867 24.0625C39.0673 25.0484 37.8425 25.6397 36.5072 25.6397Z" fill="#038992"/>
<path d="M30.0819 36.5314L29.4514 39.7867C30.3609 39.8904 31.2812 39.9433 32.2103 39.9433C36.7979 39.9433 42.9931 37.672 46.5969 35.4056L45.3721 33.335C41.9583 34.9621 36.3574 36.6147 32.2103 36.6147C31.4976 36.6147 30.7878 36.5863 30.0819 36.5314Z" fill="#038992"/>
<path d="M49.7807 40.7884L48.0919 37.9336C44.0407 40.4594 37.358 42.8805 32.2103 42.8805C31.0933 42.8805 29.986 42.813 28.8925 42.6779C27.6184 49.2588 27.7129 48.7891 27.6677 48.9612C36.2261 50.4236 44.7769 47.5106 49.5624 42.6084C50.0265 42.1556 50.157 41.3926 49.7807 40.7884Z" fill="#038992"/>
<path d="M21.4293 8.93741C21.4643 9.21751 21.1577 8.38711 26.5515 21.7821C26.7747 22.3382 27.3141 22.7023 27.9133 22.7023H36.5071C37.1062 22.7023 37.6457 22.3382 37.8689 21.7821C42.8723 9.35653 42.8982 9.29407 42.902 9.28399C43.0362 8.93879 43.0324 8.57635 42.9245 8.27071C42.6762 7.50267 41.3799 6.42693 40.5533 5.97296V1.46852C40.5533 0.657897 39.8964 0 39.0848 0C38.2742 0 37.6163 0.657897 37.6163 1.46852V5.16136C35.4493 5.08539 33.4645 6.05481 32.2102 7.6226C30.9463 6.04277 28.9559 5.08598 26.8041 5.16136V1.46852C26.8041 0.657897 26.1462 0 25.3355 0C24.5239 0 23.867 0.657897 23.867 1.46852V5.97296C22.968 6.46678 21.7277 7.55358 21.4959 8.27071C21.4192 8.48785 21.4 8.73221 21.4293 8.93741Z" fill="#038992"/>
<path d="M0.0271266 31.9673L3.15997 48.1533C3.29409 48.8435 3.89815 49.3428 4.60206 49.3428H7.13476C7.12223 46.3371 7.06565 53.182 7.13672 30.2197H1.46921C0.547276 30.2197 -0.148019 31.0608 0.0271266 31.9673Z" fill="#038992"/>
<path d="M10.0728 49.3419H17.9294L17.9568 43.0762H10.0454L10.0728 49.3419Z" fill="#038992"/>
<path d="M10.0435 40.1401H17.9578L17.9265 30.2197H10.0748L10.0435 40.1401Z" fill="#038992"/>
<path d="M26.532 30.2197H20.8645C20.9374 53.7666 20.8805 45.9542 20.8665 49.3428H23.3992C24.1031 49.3428 24.7071 48.8435 24.8413 48.1533L27.9741 31.9673C28.1489 31.0623 27.4553 30.2197 26.532 30.2197Z" fill="#038992"/>
<path d="M18.8782 23.3618C14.5404 19.0281 7.10156 22.1361 7.10156 28.2413L7.13681 30.2189H10.0748L10.0386 28.2413C10.0386 26.0566 11.8159 24.2792 14.0007 24.2792C16.1902 24.2792 17.9627 26.0508 17.9627 28.2413L17.9265 30.2189H20.8645C20.8971 28.391 21.2644 25.7477 18.8782 23.3618Z" fill="#038992"/>
</svg>
