<svg width="50" height="50" viewBox="0 0 50 50" fill="none" xmlns="http://www.w3.org/2000/svg">
<path d="M4.49146 23.3408L0.82251 20.8408L4.49146 17.1709V23.3408Z" fill="#038992"/>
<path d="M7.42114 1.67764V25.3359C7.42114 25.3359 19.8585 33.8085 19.8586 33.8086C23.2395 36.0957 27.7551 36.0459 31.092 33.6846L42.5793 25.5508V1.67764C42.5793 0.751074 41.8283 0 40.9017 0H9.09878C8.17222 0 7.42114 0.751074 7.42114 1.67764ZM36.3577 23.0605H13.6852C12.8969 23.0605 12.2184 22.4551 12.1807 21.6677C12.1405 20.8265 12.8104 20.1309 13.6438 20.1309H36.316C37.1044 20.1309 37.7832 20.7363 37.8209 21.5239C37.861 22.3651 37.1901 23.0605 36.3577 23.0605ZM36.3577 15.374H13.6847C12.8956 15.374 12.2169 14.767 12.1806 13.9787C12.1418 13.1375 12.8113 12.4443 13.6439 12.4443H36.3161C37.1045 12.4443 37.7833 13.0498 37.8209 13.8374C37.861 14.6786 37.1901 15.374 36.3577 15.374ZM36.3577 7.68652H13.6852C12.8969 7.68652 12.2184 7.08106 12.1807 6.29365C12.1405 5.45244 12.8104 4.75684 13.6438 4.75684H36.3165C37.1057 4.75684 37.7846 5.36387 37.8209 6.15234C37.8596 6.99346 37.1892 7.68652 36.3577 7.68652Z" fill="#038992"/>
<path d="M49.2009 20.8633L45.5085 23.4775V17.1709L49.2009 20.8633Z" fill="#038992"/>
<path d="M50 23.8867V47.8281C50 49.0276 49.0276 50 47.8281 50H2.17188C0.972363 50 0 49.0276 0 47.8281V23.8252L15.8408 34.6162L6.71064 43.7464C6.15566 44.3014 6.10039 45.2043 6.62412 45.789C7.18643 46.4167 8.1583 46.4423 8.75195 45.8487L18.3066 36.294C22.8757 39.2833 28.3897 38.9967 32.46 36.296L42.0127 45.8487C42.5842 46.4201 43.5121 46.4205 44.084 45.8487C44.6562 45.2765 44.6562 44.3487 44.084 43.7765L34.8906 34.5841L50 23.8867Z" fill="#038992"/>
</svg>
