<svg width="50" height="50" viewBox="0 0 50 50" fill="none" xmlns="http://www.w3.org/2000/svg">
<path d="M4.49121 23.3408L0.822266 20.8408L4.49121 17.1709V23.3408Z" fill="#E6F3F4"/>
<path d="M7.4209 1.67764V25.3359C7.4209 25.3359 19.8583 33.8085 19.8584 33.8086C23.2393 36.0957 27.7549 36.0459 31.0918 33.6846L42.5791 25.5508V1.67764C42.5791 0.751074 41.828 0 40.9015 0H9.09854C8.17197 0 7.4209 0.751074 7.4209 1.67764ZM36.3574 23.0605H13.685C12.8967 23.0605 12.2182 22.4551 12.1805 21.6677C12.1402 20.8265 12.8102 20.1309 13.6436 20.1309H36.3157C37.1042 20.1309 37.7829 20.7363 37.8206 21.5239C37.8607 22.3651 37.1898 23.0605 36.3574 23.0605ZM36.3574 15.374H13.6845C12.8953 15.374 12.2167 14.767 12.1804 13.9787C12.1416 13.1375 12.811 12.4443 13.6437 12.4443H36.3158C37.1043 12.4443 37.783 13.0498 37.8207 13.8374C37.8607 14.6786 37.1898 15.374 36.3574 15.374ZM36.3574 7.68652H13.685C12.8967 7.68652 12.2182 7.08106 12.1805 6.29365C12.1402 5.45244 12.8102 4.75684 13.6436 4.75684H36.3162C37.1055 4.75684 37.7844 5.36387 37.8207 6.15234C37.8594 6.99346 37.189 7.68652 36.3574 7.68652Z" fill="#E6F3F4"/>
<path d="M49.2012 20.8633L45.5088 23.4775V17.1709L49.2012 20.8633Z" fill="#E6F3F4"/>
<path d="M50 23.8867V47.8281C50 49.0276 49.0276 50 47.8281 50H2.17188C0.972363 50 0 49.0276 0 47.8281V23.8252L15.8408 34.6162L6.71064 43.7464C6.15566 44.3014 6.10039 45.2043 6.62412 45.789C7.18643 46.4167 8.1583 46.4423 8.75195 45.8487L18.3066 36.294C22.8757 39.2833 28.3897 38.9967 32.46 36.296L42.0127 45.8487C42.5842 46.4201 43.5121 46.4205 44.084 45.8487C44.6562 45.2765 44.6562 44.3487 44.084 43.7765L34.8906 34.5841L50 23.8867Z" fill="#E6F3F4"/>
</svg>
