<svg width="35" height="33" viewBox="0 0 35 33" fill="none" xmlns="http://www.w3.org/2000/svg">
<path d="M33.7553 5.01155L29.9841 1.23975C28.3314 -0.413249 25.6269 -0.413249 23.9742 1.23975L7.32826 17.8884C6.37109 18.8458 5.83331 20.1442 5.83331 21.498V23.3319C5.83331 24.943 7.13918 26.249 8.75 26.249H10.5836C11.9373 26.249 13.2355 25.7112 14.1927 24.7539L28.4374 10.5068C28.7222 10.222 28.7222 9.76027 28.4374 9.47548L27.4064 8.44435C27.1217 8.15956 26.66 8.15956 26.3752 8.44435L12.1309 22.691C11.7206 23.1014 11.164 23.332 10.5837 23.332H8.75V21.4981C8.75 20.9176 8.98058 20.3609 9.39101 19.9504L26.0364 3.30229C26.5549 2.78364 27.4034 2.78364 27.9219 3.30229L31.6931 7.07408C31.9374 7.31833 32.0833 7.67093 32.0833 8.01703C32.0833 8.36314 31.9374 8.71567 31.6931 8.95998L12.558 28.0981C11.8742 28.782 10.9468 29.1662 9.97979 29.1662H4.375C3.56959 29.1662 2.91669 28.5132 2.91669 27.7076V22.1019C2.91669 21.1347 3.30087 20.2072 3.98467 19.5233L20.7186 2.78672C21.0033 2.50194 21.0033 2.04017 20.7186 1.75538L19.6876 0.72425C19.4028 0.439465 18.9412 0.439465 18.6564 0.72425L1.92192 17.4613C0.691318 18.6921 0 20.3614 0 22.102V27.7077C0 30.1243 1.95877 32.0834 4.375 32.0834H9.97979C11.7201 32.0834 13.3891 31.3919 14.6197 30.1612L33.7553 11.0225C34.5464 10.2312 35 9.1358 35 8.01696C35 6.89813 34.5464 5.80274 33.7553 5.01155Z" fill="black"/>
</svg>
