<svg width="40" height="40" viewBox="0 0 40 40" fill="none" xmlns="http://www.w3.org/2000/svg">
<path d="M9.45312 30.5469H30.5469V9.45312H9.45312V30.5469Z" fill="#038992"/>
<path d="M32.9686 0V2.34375H35.999L32.4834 5.85938L34.1405 7.51649L37.6561 4.00086V7.03125H39.9999V0H32.9686Z" fill="#038992"/>
<path d="M7.03125 2.34375V0H0V7.03125H2.34375V4.00086L5.85938 7.51649L7.51649 5.85938L4.00086 2.34375H7.03125Z" fill="#038992"/>
<path d="M37.6561 35.999L34.1405 32.4834L32.4834 34.1405L35.999 37.6561H32.9686V39.9999H39.9999V32.9686H37.6561V35.999Z" fill="#038992"/>
<path d="M5.85938 32.4834L2.34375 35.999V32.9686H0V39.9999H7.03125V37.6561H4.00086L7.51649 34.1405L5.85938 32.4834Z" fill="#038992"/>
</svg>
