<svg width="50" height="50" viewBox="0 0 50 50" fill="none" xmlns="http://www.w3.org/2000/svg">
<path d="M46.7391 9.6951H43.0995C43.5796 8.93534 43.8964 8.08251 43.9867 7.18056C44.2753 4.29804 42.7572 1.71406 40.1728 0.568462C37.7972 -0.484564 35.1276 -0.0540958 33.2052 1.68946L28.6095 5.85449C27.7145 4.87558 26.4279 4.26035 25 4.26035C23.5695 4.26035 22.2808 4.87754 21.3856 5.85947L16.784 1.68897C14.8586 -0.054584 12.19 -0.483392 9.81551 0.569048C7.23172 1.71475 5.71337 4.29961 6.00282 7.18202C6.09335 8.08329 6.40995 8.93573 6.88993 9.6951H3.26083C1.45986 9.6951 0 11.1551 0 12.9559V17.8472C0 18.7476 0.729979 19.4777 1.63047 19.4777H48.3695C49.2699 19.4777 50 18.7477 50 17.8472V12.9559C49.9999 11.1551 48.54 9.6951 46.7391 9.6951ZM20.1087 9.15165V9.6951H12.4385C10.4119 9.6951 8.81698 7.80585 9.32313 5.69589C9.54608 4.7667 10.2168 3.97461 11.0843 3.57363C12.2755 3.02305 13.595 3.1998 14.5955 4.10537L20.11 9.1036C20.1097 9.11971 20.1087 9.13554 20.1087 9.15165ZM40.7513 6.74765C40.6298 8.44227 39.099 9.6953 37.4001 9.6953H29.8913V9.15184C29.8913 9.13261 29.8901 9.11356 29.8899 9.09432C31.1391 7.9619 33.8492 5.50566 35.319 4.17334C36.1543 3.41621 37.3232 3.06279 38.4036 3.38506C39.9541 3.84756 40.8647 5.16611 40.7513 6.74765Z" fill="#038992"/>
<path d="M3.26074 22.7383V46.6513C3.26074 48.4523 4.7206 49.9122 6.52158 49.9122H21.7389V22.7383H3.26074Z" fill="#038992"/>
<path d="M28.2607 22.7383V49.9122H43.4781C45.2791 49.9122 46.7389 48.4523 46.7389 46.6513V22.7383H28.2607Z" fill="#038992"/>
</svg>
