<svg width="50" height="42" viewBox="0 0 50 42" fill="none" xmlns="http://www.w3.org/2000/svg">
<path d="M31.2498 9.375C30.0998 9.375 29.1665 8.44167 29.1665 7.29167V4.16667H20.8332V7.29167C20.8332 8.44167 19.8998 9.375 18.7498 9.375C17.5998 9.375 16.6665 8.44167 16.6665 7.29167V4.16667C16.6665 1.86875 18.5353 0 20.8332 0H29.1665C31.4644 0 33.3332 1.86875 33.3332 4.16667V7.29167C33.3332 8.44167 32.3998 9.375 31.2498 9.375Z" fill="#E6F3F4"/>
<path d="M26.4792 27.8753C26.1042 28.0212 25.5625 28.1253 25 28.1253C24.4375 28.1253 23.8958 28.0212 23.3958 27.8337L0 20.042V35.9378C0 39.1045 2.5625 41.667 5.72917 41.667H44.2708C47.4375 41.667 50 39.1045 50 35.9378V20.042L26.4792 27.8753Z" fill="#E6F3F4"/>
<path d="M50 11.9792V16.75L25.5 24.9167C25.3333 24.9792 25.1667 25 25 25C24.8333 25 24.6667 24.9792 24.5 24.9167L0 16.75V11.9792C0 8.8125 2.5625 6.25 5.72917 6.25H44.2708C47.4375 6.25 50 8.8125 50 11.9792Z" fill="#E6F3F4"/>
</svg>
