<svg width="20" height="20" viewBox="0 0 20 20" fill="none" xmlns="http://www.w3.org/2000/svg">
<path d="M13.085 0C9.35774 0 6.32532 3.03242 6.32532 6.75973C6.32532 7.58836 6.47255 8.39359 6.76325 9.15828L0.299814 15.6222C0.207432 15.7146 0.155518 15.8399 0.155518 15.9705V19.5074C0.155518 19.7795 0.376064 20 0.648135 20H3.56282C3.69333 20 3.81849 19.9482 3.91087 19.856L4.8931 18.8753C4.98567 18.7829 5.03767 18.6574 5.03767 18.5266V17.3205H6.24224C6.51431 17.3205 6.73485 17.1 6.73485 16.8279V16.3451H7.2177C7.48974 16.3451 7.71032 16.1246 7.71032 15.8525V14.7925H8.77032C8.90095 14.7925 9.02622 14.7406 9.11864 14.6482L10.6859 13.081C11.4507 13.372 12.256 13.5194 13.085 13.5194C16.8123 13.5194 19.8447 10.487 19.8447 6.75965C19.8447 3.03242 16.8124 0 13.085 0ZM13.085 12.5341C12.2787 12.5341 11.4989 12.3713 10.7671 12.05C10.5779 11.967 10.3648 12.0127 10.2253 12.1487C10.2238 12.1501 10.2223 12.1513 10.2208 12.1528L8.56634 13.8073H7.21778C6.94571 13.8073 6.72517 14.0278 6.72517 14.2999V15.3599H6.24231C5.97028 15.3599 5.7497 15.5804 5.7497 15.8525V16.3353H4.54509C4.27306 16.3353 4.05247 16.5559 4.05247 16.8279V18.3223L3.35899 19.0147H1.14083V18.3186L7.16196 12.2975C7.33513 12.1243 7.33513 11.8436 7.16196 11.6705C6.9888 11.4974 6.70817 11.4973 6.53489 11.6705L1.14083 17.0646V16.1746L7.69145 9.62352C7.69294 9.62203 7.69407 9.62066 7.69544 9.61922C7.83145 9.4798 7.87731 9.26672 7.79427 9.07734C7.47333 8.34562 7.31067 7.56582 7.31067 6.75977C7.31067 3.5757 9.9011 0.985273 13.0852 0.985273C16.2692 0.985273 18.8596 3.57566 18.8596 6.75977C18.8595 9.94375 16.269 12.5341 13.085 12.5341Z" fill="white"/>
<path d="M15.1421 2.85742C14.1246 2.85742 13.2969 3.68516 13.2969 4.70262C13.2969 5.72008 14.1246 6.54781 15.1421 6.54781C16.1595 6.54781 16.9873 5.72008 16.9873 4.70262C16.9873 3.68516 16.1596 2.85742 15.1421 2.85742ZM15.1421 5.56258C14.6679 5.56258 14.2821 5.1768 14.2821 4.70262C14.2821 4.22844 14.6679 3.84266 15.1421 3.84266C15.6163 3.84266 16.002 4.22844 16.002 4.70262C16.002 5.1768 15.6163 5.56258 15.1421 5.56258Z" fill="white"/>
</svg>
