<svg width="40" height="56" viewBox="0 0 40 56" fill="none" xmlns="http://www.w3.org/2000/svg">
<path d="M20 0C8.97194 0 0 8.97194 0 19.9999C0 33.6859 17.898 53.7778 18.6601 54.6265C19.3758 55.4236 20.6255 55.4222 21.3399 54.6265C22.102 53.7778 40 33.6859 40 19.9999C39.9998 8.97194 31.028 0 20 0ZM20 30.0624C14.4515 30.0624 9.9376 25.5484 9.9376 19.9999C9.9376 14.4514 14.4516 9.9375 20 9.9375C25.5484 9.9375 30.0623 14.4515 30.0623 20C30.0623 25.5485 25.5484 30.0624 20 30.0624Z" fill="black"/>
</svg>
