<svg width="14" height="20" viewBox="0 0 14 20" fill="none" xmlns="http://www.w3.org/2000/svg">
<path d="M7.00003 9.57973C8.80784 9.57973 10.2786 8.10914 10.2786 6.30156C10.2786 4.49398 8.80784 3.02344 7.00003 3.02344C5.19222 3.02344 3.72144 4.49398 3.72144 6.30156C3.72144 8.10914 5.19222 9.57973 7.00003 9.57973ZM7.00003 4.19516C8.16167 4.19516 9.10675 5.14012 9.10675 6.30156C9.10675 7.46305 8.16171 8.40801 7.00003 8.40801C5.83835 8.40801 4.89331 7.46305 4.89331 6.30156C4.89331 5.14012 5.83839 4.19516 7.00003 4.19516Z" fill="black"/>
<path d="M3.43022 12.1926C4.3183 13.3948 3.9615 12.9273 6.51951 16.5795C6.75201 16.9127 7.24643 16.9143 7.48025 16.58C10.0498 12.9105 9.69627 13.3752 10.5699 12.1926C11.4549 10.9945 12.37 9.75555 12.8715 8.30375C13.5973 6.20215 13.2836 4.12273 11.9881 2.44852C11.9881 2.44852 11.9881 2.44848 11.9881 2.44848C10.8014 0.915313 8.93674 0 7.00006 0C5.06338 0 3.19869 0.915313 2.01201 2.44855C0.716584 4.12277 0.402834 6.20223 1.12869 8.30383C1.6301 9.75559 2.54526 10.9945 3.43022 12.1926ZM2.93881 3.16559C3.90514 1.91711 5.42338 1.17172 7.00006 1.17172C8.57674 1.17172 10.095 1.91711 11.0613 3.16559L11.0612 3.16555C12.1068 4.5168 12.3563 6.20578 11.7638 7.92133C11.3208 9.20367 10.4599 10.3693 9.62725 11.4965C8.97897 12.3741 9.17299 12.1057 7.00006 15.2204C4.8294 12.1088 5.02096 12.3738 4.37287 11.4965C3.54026 10.3693 2.67928 9.20363 2.23635 7.92133C1.64385 6.20574 1.8933 4.5168 2.93881 3.16559Z" fill="black"/>
<path d="M3.91131 14.733C3.7385 14.4595 3.37663 14.3777 3.10303 14.5506L1.43702 15.6028C1.07358 15.8324 1.07323 16.3637 1.43702 16.5935L6.68702 19.9094C6.87815 20.0301 7.12174 20.0301 7.31284 19.9094L12.5628 16.5935C12.9263 16.3639 12.9266 15.8326 12.5628 15.6028L10.8968 14.5506C10.6232 14.3778 10.2613 14.4595 10.0885 14.733C9.91569 15.0066 9.99741 15.3684 10.271 15.5412L11.1528 16.0981L6.99991 18.7211L2.84706 16.0981L3.72885 15.5412C4.00245 15.3685 4.08413 15.0066 3.91131 14.733Z" fill="black"/>
</svg>
