<svg width="37" height="36" viewBox="0 0 37 36" fill="none" xmlns="http://www.w3.org/2000/svg">
<path d="M22.4753 9.8296C22.4752 8.94461 22.2127 8.07952 21.7209 7.34373C21.2292 6.60795 20.5303 6.0345 19.7126 5.69592C18.8949 5.35733 17.9952 5.2688 17.1273 5.44153C16.2593 5.61425 15.462 6.04048 14.8363 6.6663C14.2105 7.29213 13.7844 8.08945 13.6118 8.95745C13.4392 9.82545 13.5279 10.7251 13.8666 11.5428C14.2053 12.3604 14.7788 13.0592 15.5146 13.5509C16.2505 14.0425 17.1156 14.3049 18.0006 14.3049C19.187 14.3035 20.3245 13.8315 21.1633 12.9925C22.0022 12.1535 22.4741 11.016 22.4753 9.8296ZM14.5857 9.8296C14.5859 9.15423 14.7862 8.49406 15.1615 7.93256C15.5368 7.37107 16.0702 6.93347 16.6942 6.6751C17.3182 6.41673 18.0048 6.34919 18.6672 6.48102C19.3296 6.61285 19.938 6.93814 20.4155 7.41574C20.893 7.89334 21.2182 8.50181 21.3499 9.16422C21.4816 9.82662 21.414 10.5132 21.1555 11.1372C20.897 11.7611 20.4593 12.2944 19.8978 12.6696C19.3362 13.0448 18.676 13.2451 18.0006 13.2451C17.0951 13.244 16.2271 12.8838 15.5869 12.2435C14.9467 11.6032 14.5866 10.7351 14.5857 9.8296Z" fill="#038992"/>
<path d="M35.9662 35.2811L31.6462 23.9557C31.6079 23.8555 31.5401 23.7692 31.4517 23.7083C31.3633 23.6474 31.2585 23.6148 31.1511 23.6148H22.975C23.025 23.5333 23.0747 23.4543 23.1246 23.3725C26.2706 18.164 27.8537 13.6079 27.831 9.83233C27.8315 7.22508 26.7962 4.72443 24.9529 2.88051C23.1096 1.03659 20.6093 0.000441858 18.002 1.41287e-07C15.3948 -0.000441576 12.8941 1.03486 11.0502 2.87816C9.20629 4.72145 8.17013 7.22175 8.16969 9.829C8.14698 13.6079 9.73011 18.1647 12.8761 23.3725C12.926 23.4552 12.9757 23.5342 13.0257 23.6148H4.8496C4.74226 23.6148 4.63746 23.6474 4.54906 23.7083C4.46065 23.7692 4.39281 23.8555 4.3545 23.9557L0.0351083 35.2811C0.00433125 35.3613 -0.00644608 35.4479 0.00370754 35.5332C0.0138612 35.6185 0.0446403 35.7001 0.0933857 35.7709C0.142131 35.8417 0.207377 35.8995 0.283485 35.9394C0.359593 35.9794 0.444276 36.0001 0.530215 36H35.4711C35.557 36.0001 35.6417 35.9794 35.7178 35.9394C35.7939 35.8995 35.8592 35.8417 35.9079 35.7709C35.9567 35.7001 35.9875 35.6185 35.9976 35.5332C36.0078 35.4479 35.997 35.3613 35.9662 35.2811ZM9.22986 9.82991C9.23006 8.67811 9.45712 7.53763 9.89807 6.47358C10.339 5.40954 10.9853 4.44276 11.7998 3.62846C12.6144 2.81415 13.5814 2.16827 14.6456 1.72768C15.7098 1.28709 16.8504 1.06042 18.0022 1.06062C19.154 1.06082 20.2945 1.28788 21.3585 1.72883C22.4225 2.16979 23.3893 2.81601 24.2036 3.6306C25.0179 4.44518 25.6638 5.41218 26.1044 6.47638C26.545 7.54058 26.7717 8.68114 26.7715 9.83294C26.8169 17.3604 19.7794 26.6445 18.0007 28.8708C16.2219 26.6454 9.18413 17.3637 9.22986 9.82991ZM17.597 30.0518C17.6468 30.1102 17.7086 30.1572 17.7783 30.1894C17.848 30.2216 17.9239 30.2383 18.0007 30.2383C18.0774 30.2383 18.1533 30.2216 18.223 30.1894C18.2927 30.1572 18.3546 30.1102 18.4043 30.0518C19.8113 28.3378 21.1157 26.542 22.3107 24.674H30.7856L31.4639 26.4531L14.9025 32.3432L8.99941 24.6731H13.6901C14.8852 26.5415 16.1898 28.3375 17.597 30.0518ZM14.8841 33.4736H14.8871L24.7671 29.9609L28.5993 34.9401H10.7633L14.8841 33.4736ZM5.2151 24.6731H7.66187L13.8521 32.7165L7.601 34.9398H1.29937L5.2151 24.6731ZM29.938 34.9401L25.817 29.5857L31.8431 27.4427L34.7026 34.9401H29.938Z" fill="#038992"/>
</svg>
