<svg width="35" height="17" viewBox="0 0 35 17" fill="none" xmlns="http://www.w3.org/2000/svg">
<path d="M34.599 9.46779C34.5986 9.4682 34.5983 9.46868 34.5978 9.46909L27.4539 16.5784C26.9188 17.111 26.0531 17.109 25.5204 16.5738C24.9877 16.0386 24.9898 15.173 25.525 14.6403L30.3213 9.86721H1.36719C0.61209 9.86721 0 9.25512 0 8.50003C0 7.74493 0.61209 7.13284 1.36719 7.13284H30.3213L25.525 2.35973C24.9899 1.82707 24.9878 0.961441 25.5205 0.426258C26.0532 -0.109064 26.9189 -0.110909 27.454 0.42161L34.5978 7.53097C34.5983 7.53138 34.5986 7.53185 34.5991 7.53226C35.1345 8.0667 35.1328 8.93513 34.599 9.46779Z" fill="#969797"/>
</svg>
