<svg width="50" height="44" viewBox="0 0 50 44" fill="none" xmlns="http://www.w3.org/2000/svg">
<path d="M33.4359 23.3743C31.186 19.8643 27.3541 17.7686 23.1854 17.7686C19.0167 17.7686 15.1849 19.8643 12.9354 23.3743L7.5139 31.8318C6.6144 33.2349 6.19936 34.8561 6.31342 36.5189C6.42748 38.1821 7.06034 39.7309 8.14333 40.9989C9.22708 42.2658 10.6591 43.1317 12.2846 43.5033C13.91 43.8748 15.5763 43.7161 17.1029 43.0451L17.2051 42.9997C21.0465 41.3449 25.4361 41.3602 29.2676 43.0451C30.256 43.4796 31.3031 43.6993 32.3598 43.6993C32.9343 43.6993 33.5122 43.6341 34.0848 43.5036C35.7102 43.1325 37.1423 42.2665 38.2264 40.9993C39.3098 39.7324 39.943 38.1833 40.0575 36.5197C40.1719 34.8561 39.7569 33.2352 38.8574 31.8314L33.4359 23.3743Z" fill="#E6F3F4"/>
<path d="M8.97412 23.3636C10.587 22.7441 11.8123 21.4445 12.4241 19.7038C13.0066 18.0475 12.9589 16.1775 12.2895 14.438C11.6196 12.6996 10.4012 11.2806 8.85853 10.4417C7.23805 9.5609 5.45773 9.41747 3.84754 10.0381C0.608104 11.2836 -0.878484 15.2868 0.534098 18.9638C1.66249 21.8904 4.29425 23.7379 6.955 23.7379C7.63439 23.7379 8.3157 23.6173 8.97412 23.3636Z" fill="#E6F3F4"/>
<path d="M19.4936 16.737C23.5433 16.737 26.838 12.9833 26.838 8.36945C26.838 3.75443 23.5433 0 19.4936 0C15.4443 0 12.1499 3.75443 12.1499 8.36945C12.1499 12.9833 15.4443 16.737 19.4936 16.737Z" fill="#E6F3F4"/>
<path d="M32.1774 18.7935H32.1778C32.8007 19.0002 33.4363 19.099 34.0691 19.099C37.0225 19.099 39.9006 16.9495 40.9989 13.6459C41.6314 11.7443 41.5898 9.73358 40.8818 7.98454C40.141 6.15349 38.7681 4.82445 37.0156 4.24194C35.2627 3.65944 33.3672 3.90243 31.6777 4.92554C30.0637 5.90286 28.827 7.48863 28.1952 9.39026C26.862 13.4018 28.6484 17.6201 32.1774 18.7935Z" fill="#E6F3F4"/>
<path d="M47.644 17.8168L47.6429 17.8156C44.8501 15.7526 40.6734 16.6468 38.3316 19.8099C35.992 22.9746 36.3579 27.2291 39.1464 29.2936C40.1634 30.0471 41.365 30.4072 42.5949 30.4072C44.7384 30.4072 46.9684 29.3131 48.4592 27.3012C50.7984 24.1366 50.4329 19.882 47.644 17.8168Z" fill="#E6F3F4"/>
</svg>
