<svg width="50" height="50" viewBox="0 0 50 50" fill="none" xmlns="http://www.w3.org/2000/svg">
<path d="M25 0C11.193 0 0 11.193 0 25C0 38.807 11.193 50 25 50C38.807 50 50 38.807 50 25C49.9845 11.1995 38.8005 0.0154623 25 0ZM25.8923 7.20744L34.5833 3.73332C35.5697 4.17969 36.5238 4.69401 37.439 5.27262L37.4618 5.28687C38.361 5.85653 39.2204 6.48682 40.0342 7.17326L40.1042 7.23429C40.4692 7.54517 40.824 7.86702 41.169 8.19906C41.2126 8.24178 41.2581 8.28247 41.3017 8.32601C41.6634 8.6792 42.0138 9.04338 42.3527 9.41813C42.3808 9.44987 42.4076 9.48324 42.4357 9.51497C42.7332 9.84823 43.0192 10.1933 43.2967 10.544C43.3634 10.6274 43.4302 10.7109 43.4949 10.7943C43.796 11.1841 44.0873 11.5808 44.3624 11.9902L42.6298 19.3551L34.1056 22.1969L25.8944 15.6266L25.8923 7.20744ZM6.50431 10.7992C6.56901 10.7157 6.63493 10.6323 6.70166 10.5493C6.97591 10.2014 7.25952 9.86206 7.55249 9.53084C7.58423 9.49585 7.61352 9.46004 7.64486 9.42505C7.98177 9.04948 8.33048 8.68571 8.69181 8.33333C8.73332 8.29264 8.77482 8.24992 8.81836 8.21248C9.16056 7.88249 9.51253 7.56266 9.87427 7.25342L9.95768 7.18343C10.7642 6.50187 11.6154 5.87565 12.5057 5.30843L12.5382 5.28768C13.4481 4.71029 14.3962 4.19678 15.3768 3.75L24.1077 7.20744V15.6242L15.896 22.1932L7.37183 19.3567L5.63924 11.9918C5.91675 11.5833 6.20483 11.1873 6.50431 10.7992ZM5.50008 37.7877C5.25513 37.4141 5.02075 37.0337 4.79736 36.6459L4.74325 36.5523C4.52108 36.1666 4.31071 35.7743 4.11255 35.376L4.10563 35.3634C3.68815 34.5251 3.32153 33.6625 3.00822 32.7799V32.7718C2.86011 32.3551 2.72502 31.9283 2.6001 31.499L2.55493 31.3407C2.44059 30.9375 2.33683 30.5298 2.24406 30.1176C2.23592 30.0773 2.22575 30.0391 2.21761 29.9992C2.01294 29.0682 1.86605 28.1258 1.77734 27.1765L6.86483 21.0718L15.33 23.8932L17.7869 33.7199L13.75 39.091L5.50008 37.7877ZM30.5493 47.6607C30.1327 47.7641 29.705 47.8532 29.2773 47.9333C29.2175 47.9451 29.1565 47.9549 29.0967 47.9659C28.7325 48.031 28.3643 48.0868 27.9952 48.1323C27.8967 48.1449 27.7991 48.1584 27.701 48.1702C27.3584 48.21 27.0125 48.2402 26.6659 48.265C26.5568 48.2723 26.449 48.2833 26.3399 48.2902C25.8968 48.3175 25.45 48.3333 25 48.3333C24.5878 48.3333 24.1781 48.3223 23.7708 48.3008C23.7215 48.3008 23.6743 48.2926 23.6251 48.289C23.2625 48.2682 22.9016 48.241 22.5415 48.206L22.5 48.1982C21.711 48.1128 20.9265 47.9875 20.1501 47.8235L15.2209 40.1058L19.1943 34.8075H30.8057L34.8442 40.1408L30.5493 47.6607ZM47.7885 30C47.7799 30.0399 47.7702 30.0785 47.7616 30.1184C47.6685 30.5302 47.5647 30.9379 47.4508 31.3416L47.406 31.4998C47.2807 31.9291 47.146 32.3543 46.9975 32.7726V32.7808C46.6842 33.6633 46.318 34.526 45.9001 35.3642L45.8931 35.3768C45.6938 35.7756 45.4838 36.1678 45.2625 36.5531L45.2083 36.6467C44.9862 37.0357 44.7522 37.4154 44.5068 37.7869L36.285 39.0833L32.2201 33.7166L34.6757 23.8924L43.1409 21.071L48.2284 27.1757C48.1401 28.1254 47.9932 29.0686 47.7885 30Z" fill="#E6F3F4"/>
</svg>
