<svg width="20" height="20" viewBox="0 0 20 20" fill="none" xmlns="http://www.w3.org/2000/svg">
<path d="M18.0099 2.76824V1.99059C18.0099 0.892969 17.1169 0 16.0193 0H10.4831C9.95136 0 9.45151 0.20707 9.07554 0.583086L1.24593 8.41273C0.869912 8.78871 0.662842 9.28859 0.662842 9.82031C0.662842 10.352 0.869912 10.8519 1.24593 11.2279L2.04151 12.0235C2.0078 12.1697 1.98995 12.3207 1.98995 12.4745C1.98995 13.0062 2.19702 13.5061 2.57304 13.882L8.10909 19.418C8.49714 19.806 9.0069 20 9.51663 20C10.0264 20 10.5361 19.806 10.9242 19.4179L18.7539 11.5882C19.1299 11.2122 19.3369 10.7123 19.3369 10.1806V4.64469C19.3369 3.77969 18.7821 3.04215 18.0099 2.76824ZM2.18429 10.2895C2.05897 10.1642 1.98991 9.99754 1.98991 9.82027C1.98991 9.64301 2.05897 9.47645 2.18429 9.35105L10.0139 1.52141C10.1393 1.39613 10.3059 1.32707 10.4832 1.32707H16.0192C16.3851 1.32707 16.6828 1.62473 16.6828 1.99059V2.6541H11.8102C11.2784 2.6541 10.7786 2.86117 10.4026 3.23719L2.76737 10.8725L2.18429 10.2895ZM17.8155 10.6498L9.98581 18.4795C9.72702 18.7383 9.30612 18.7382 9.04745 18.4795L3.51136 12.9436C3.38604 12.8183 3.31698 12.6516 3.31698 12.4744C3.31698 12.2971 3.38604 12.1305 3.51136 12.0052L11.341 4.17547C11.4664 4.0502 11.633 3.98113 11.8102 3.98113H17.3463C17.7122 3.98113 18.0098 4.27879 18.0098 4.64465V10.1806H18.0099C18.0099 10.3579 17.9408 10.5245 17.8155 10.6498Z" fill="black"/>
<path d="M14.6922 5.30859C13.5946 5.30859 12.7017 6.20156 12.7017 7.29918C12.7017 8.3968 13.5946 9.28977 14.6922 9.28977C15.7899 9.28977 16.6828 8.3968 16.6828 7.29918C16.6828 6.20156 15.7899 5.30859 14.6922 5.30859ZM14.6922 7.96273C14.3264 7.96273 14.0287 7.66508 14.0287 7.29922C14.0287 6.93336 14.3264 6.6357 14.6922 6.6357C15.0581 6.6357 15.3558 6.93336 15.3558 7.29922C15.3558 7.66508 15.0581 7.96273 14.6922 7.96273Z" fill="black"/>
</svg>
