<svg width="50" height="35" viewBox="0 0 50 35" fill="none" xmlns="http://www.w3.org/2000/svg">
<path d="M45.3688 25.9244V24.0733V12.9622V1.85107C45.3688 0.834154 44.5364 0 43.5177 0H6.48226C5.46359 0 4.62885 0.830053 4.62885 1.85107V12.9622V24.0733V25.9244L0 31.4799C0 33.0106 1.24303 34.2554 2.77778 34.2554H47.2222C48.7546 34.2554 50 33.01 50 31.4799L45.3688 25.9244ZM28.7062 33.3327H21.2979C21.0419 33.3327 20.8345 33.1271 20.8345 32.8694C20.8345 32.6116 21.0419 32.406 21.2979 32.406H28.7068C28.9605 32.406 29.1702 32.6116 29.1702 32.8694C29.1632 33.1277 28.9599 33.3327 28.7062 33.3327ZM17.3667 31.4817L18.7796 29.7858H31.2175L32.6327 31.4817H17.3667ZM42.7627 22.6493C42.7627 23.5426 42.0351 24.2654 41.1483 24.2654H8.85116C7.96429 24.2654 7.23675 23.5361 7.23675 22.6493V3.27862C7.23675 2.3853 7.96429 1.66245 8.85116 1.66245H41.1488C42.0357 1.66245 42.7632 2.38999 42.7632 3.27862C42.7627 3.27862 42.7627 22.6493 42.7627 22.6493Z" fill="#038992"/>
</svg>
