<svg width="46" height="44" viewBox="0 0 46 44" fill="none" xmlns="http://www.w3.org/2000/svg">
<path d="M39.8416 28.9043V19.5293H30.4666V26.5605C30.7385 27.3212 30.9375 28.106 31.0606 28.9043H39.8416ZM35.1541 21.0918C35.7721 21.0918 36.3763 21.2751 36.8902 21.6185C37.4041 21.9618 37.8047 22.4499 38.0412 23.0209C38.2777 23.5919 38.3396 24.2203 38.219 24.8265C38.0984 25.4326 37.8008 25.9895 37.3638 26.4265C36.9267 26.8635 36.3699 27.1612 35.7637 27.2818C35.1575 27.4023 34.5292 27.3404 33.9582 27.1039C33.3871 26.8674 32.8991 26.4669 32.5557 25.953C32.2123 25.4391 32.0291 24.8349 32.0291 24.2168C32.03 23.3883 32.3595 22.594 32.9454 22.0081C33.5312 21.4223 34.3255 21.0927 35.1541 21.0918Z" fill="#038992"/>
<path d="M14.8328 22.6543C18.125 22.6543 20.9129 21.624 22.8951 19.6749C24.7492 17.8517 25.7703 15.3029 25.7703 12.498C25.7703 9.69316 24.7492 7.14443 22.8951 5.32119C20.9129 3.37207 18.125 2.3418 14.8328 2.3418C11.5405 2.3418 8.75259 3.37207 6.77056 5.32109C4.91636 7.14443 3.89526 9.69316 3.89526 12.498C3.89526 15.3029 4.91636 17.8517 6.77056 19.675C8.75259 21.624 11.5408 22.6543 14.8328 22.6543ZM19.5203 10.1543C19.6748 10.1543 19.8258 10.2001 19.9543 10.286C20.0828 10.3718 20.1829 10.4938 20.242 10.6366C20.3012 10.7793 20.3166 10.9364 20.2865 11.088C20.2564 11.2395 20.182 11.3787 20.0727 11.488C19.9634 11.5972 19.8242 11.6716 19.6727 11.7018C19.5211 11.7319 19.364 11.7165 19.2213 11.6573C19.0785 11.5982 18.9565 11.4981 18.8707 11.3696C18.7848 11.2411 18.739 11.0901 18.739 10.9355C18.739 10.7283 18.8213 10.5296 18.9678 10.3831C19.1144 10.2366 19.3131 10.1543 19.5203 10.1543ZM10.1453 10.1543C10.2998 10.1543 10.4508 10.2001 10.5793 10.286C10.7078 10.3718 10.8079 10.4938 10.867 10.6366C10.9262 10.7793 10.9416 10.9364 10.9115 11.088C10.8814 11.2395 10.807 11.3787 10.6977 11.488C10.5884 11.5972 10.4492 11.6716 10.2977 11.7018C10.1461 11.7319 9.98905 11.7165 9.84629 11.6573C9.70354 11.5982 9.58152 11.4981 9.49568 11.3696C9.40983 11.2411 9.36401 11.0901 9.36401 10.9355C9.36401 10.7283 9.44632 10.5296 9.59284 10.3831C9.73935 10.2366 9.93806 10.1543 10.1453 10.1543ZM9.36401 14.4512C9.57121 14.4512 9.76993 14.5335 9.91644 14.68C10.063 14.8265 10.1453 15.0252 10.1453 15.2324C10.1453 16.9713 11.8375 18.4185 14.0515 18.6982V16.2188C13.9688 16.1776 13.8895 16.1299 13.8143 16.0763L12.488 15.1298C12.2447 14.9532 12.047 14.7212 11.9112 14.453C11.7755 14.1847 11.7056 13.888 11.7074 13.5874C11.7074 12.556 12.5144 11.7168 13.5064 11.7168H16.1583C17.1503 11.7168 17.9574 12.556 17.9574 13.5874C17.9592 13.888 17.8893 14.1847 17.7535 14.453C17.6177 14.7212 17.42 14.9532 17.1767 15.1298L15.8508 16.076C15.7756 16.1296 15.6964 16.1772 15.6137 16.2185V18.6982C17.8277 18.4185 19.52 16.9713 19.52 15.2324C19.52 15.0252 19.6023 14.8265 19.7488 14.68C19.8953 14.5335 20.094 14.4512 20.3012 14.4512C20.5084 14.4512 20.7071 14.5335 20.8536 14.68C21.0002 14.8265 21.0825 15.0252 21.0825 15.2324C21.0825 18.0325 18.2788 20.3105 14.8325 20.3105C11.3862 20.3105 8.58247 18.0325 8.58247 15.2324C8.58247 15.1298 8.60269 15.0282 8.64197 14.9334C8.68125 14.8386 8.73882 14.7524 8.8114 14.6799C8.88397 14.6073 8.97013 14.5498 9.06495 14.5106C9.15977 14.4713 9.26139 14.4511 9.36401 14.4512Z" fill="#038992"/>
<path d="M35.1541 25.7793C36.017 25.7793 36.7166 25.0797 36.7166 24.2168C36.7166 23.3539 36.017 22.6543 35.1541 22.6543C34.2911 22.6543 33.5916 23.3539 33.5916 24.2168C33.5916 25.0797 34.2911 25.7793 35.1541 25.7793Z" fill="#038992"/>
<path d="M14.9437 14.8041L16.2695 13.858C16.3101 13.8258 16.3426 13.7846 16.3645 13.7376C16.3864 13.6906 16.3969 13.6392 16.3954 13.5874C16.3954 13.4204 16.2871 13.2793 16.1589 13.2793H13.5069C13.3788 13.2793 13.2704 13.4204 13.2704 13.5874C13.2689 13.6392 13.2794 13.6906 13.3013 13.7376C13.3231 13.7846 13.3556 13.8258 13.3962 13.858L14.7221 14.8041C14.7538 14.8286 14.7928 14.8418 14.8329 14.8418C14.8729 14.8418 14.9119 14.8286 14.9437 14.8041Z" fill="#038992"/>
<path d="M20.4556 23.14C22.2056 25.1928 23.2767 28.1248 23.4189 31.3024C24.9237 31.5101 26.2646 32.3203 27.244 33.5132C27.891 33.3652 28.4742 33.0155 28.9095 32.5146C29.3448 32.0136 29.6097 31.3873 29.6659 30.7261L29.5956 29.7248C29.1747 25.8857 27.0663 22.9675 23.4876 21.2529C22.5821 22.0371 21.559 22.6739 20.4556 23.14Z" fill="#038992"/>
<path d="M26.1786 7.27809C26.6972 6.97477 27.1388 6.55591 27.4691 6.05409C27.7995 5.55227 28.0096 4.98102 28.0832 4.38476C28.1568 3.78849 28.0919 3.18329 27.8935 2.61621C27.6951 2.04913 27.3685 1.53546 26.9392 1.11514C26.51 0.69482 25.9895 0.379185 25.4184 0.192779C24.8472 0.00637273 24.2408 -0.0457809 23.6462 0.040374C23.0516 0.126529 22.4849 0.34867 21.9902 0.689523C21.4955 1.03038 21.086 1.48075 20.7937 2.00563C21.9784 2.54965 23.06 3.29456 23.9907 4.20739C24.8927 5.09616 25.6331 6.13526 26.1786 7.27809Z" fill="#038992"/>
<path d="M35.1541 12.2979L31.1858 17.9668H39.1223L35.1541 12.2979Z" fill="#038992"/>
<path d="M8.87196 2.00571C8.57965 1.48082 8.1702 1.03043 7.67546 0.689559C7.18072 0.348692 6.61402 0.12654 6.01943 0.0403784C5.42484 -0.0457828 4.81839 0.00636962 4.24724 0.19278C3.67609 0.37919 3.15563 0.694833 2.72635 1.11516C2.29707 1.53549 1.97053 2.04918 1.77212 2.61627C1.57372 3.18337 1.5088 3.78858 1.58241 4.38486C1.65602 4.98113 1.86618 5.55239 2.19655 6.0542C2.52691 6.55602 2.96858 6.97487 3.4872 7.27817C4.0326 6.13532 4.77293 5.09622 5.67499 4.20747C6.60563 3.29459 7.68725 2.54968 8.87196 2.00571Z" fill="#038992"/>
<path d="M22.6541 43.748C25.2429 43.748 27.3416 41.2996 27.3416 38.2793C27.3416 35.259 25.2429 32.8105 22.6541 32.8105C20.0652 32.8105 17.9666 35.259 17.9666 38.2793C17.9666 41.2996 20.0652 43.748 22.6541 43.748Z" fill="#038992"/>
<path d="M31.2479 36.7168V33.5918H30.0409C29.5186 34.174 28.8597 34.6172 28.1235 34.8814C28.4094 35.4639 28.6188 36.0807 28.7466 36.7168H31.2479Z" fill="#038992"/>
<path d="M21.8547 31.3078C21.7054 28.2459 20.6107 25.4718 18.8475 23.6992C17.5385 24.051 16.1881 24.2252 14.8327 24.2171C13.4819 24.2251 12.1361 24.0521 10.8312 23.7028C9.07334 25.4759 7.97881 28.2612 7.82861 31.3079C10.8984 31.7512 13.279 34.7075 13.279 38.2796C13.2827 39.4341 13.0264 40.5746 12.529 41.6165C13.2425 41.9905 14.036 42.1858 14.8415 42.1858C15.647 42.1858 16.4405 41.9905 17.154 41.6165C16.6567 40.5746 16.4003 39.4341 16.404 38.2796C16.404 34.7073 18.7848 31.751 21.8547 31.3078Z" fill="#038992"/>
<path d="M7.02905 43.748C9.61789 43.748 11.7166 41.2996 11.7166 38.2793C11.7166 35.259 9.61789 32.8105 7.02905 32.8105C4.44022 32.8105 2.34155 35.259 2.34155 38.2793C2.34155 41.2996 4.44022 43.748 7.02905 43.748Z" fill="#038992"/>
<path d="M35.9353 39.8418H45.3103V30.4668H35.9353V39.8418ZM37.5803 37.1486L39.9241 32.4611C39.989 32.3314 40.0887 32.2223 40.2121 32.146C40.3355 32.0697 40.4777 32.0294 40.6228 32.0294C40.7679 32.0294 40.9101 32.0697 41.0335 32.146C41.1569 32.2223 41.2566 32.3314 41.3215 32.4611L43.6653 37.1486C43.7248 37.2677 43.753 37.4001 43.747 37.5331C43.741 37.6662 43.7011 37.7955 43.6311 37.9087C43.5611 38.022 43.4633 38.1155 43.347 38.1804C43.2307 38.2452 43.0997 38.2793 42.9666 38.2793H38.2791C38.1459 38.2793 38.0149 38.2452 37.8986 38.1804C37.7823 38.1155 37.6845 38.022 37.6145 37.9087C37.5445 37.7955 37.5046 37.6662 37.4986 37.5331C37.4926 37.4001 37.5208 37.2677 37.5803 37.1486Z" fill="#038992"/>
<path d="M6.26445 31.3023C6.40752 28.14 7.47978 25.1994 9.22461 23.1461C8.11579 22.6794 7.08766 22.0405 6.17822 21.2529C2.59961 22.9674 0.491113 25.8856 0.0701172 29.7244L0 30.7258C0.0564557 31.3896 0.323166 32.0181 0.761357 32.5199C1.19955 33.0217 1.78637 33.3707 2.43652 33.5161C3.41592 32.3221 4.7583 31.5102 6.26445 31.3023Z" fill="#038992"/>
<path d="M40.6227 34.5576L39.543 36.7169H41.7023L40.6227 34.5576Z" fill="#038992"/>
<path d="M31.2283 30.6729C31.2307 30.7081 31.2307 30.7435 31.2283 30.7787C31.2002 31.2055 31.1134 31.6263 30.9702 32.0293H32.0291C32.2363 32.0293 32.435 32.1116 32.5815 32.2581C32.728 32.4046 32.8104 32.6033 32.8104 32.8105V37.498C32.8104 37.7052 32.728 37.904 32.5815 38.0505C32.435 38.197 32.2363 38.2793 32.0291 38.2793H28.9041C28.9039 38.8041 28.8511 39.3275 28.7466 39.8418H34.3729V30.4668H31.214L31.2283 30.6729Z" fill="#038992"/>
</svg>
