<svg width="46" height="44" viewBox="0 0 46 44" fill="none" xmlns="http://www.w3.org/2000/svg">
<path d="M39.8418 28.9043V19.5293H30.4668V26.5605C30.7388 27.3212 30.9377 28.106 31.0608 28.9043H39.8418ZM35.1543 21.0918C35.7724 21.0918 36.3766 21.2751 36.8905 21.6185C37.4044 21.9618 37.8049 22.4499 38.0414 23.0209C38.2779 23.5919 38.3398 24.2203 38.2193 24.8265C38.0987 25.4326 37.801 25.9895 37.364 26.4265C36.927 26.8635 36.3701 27.1612 35.764 27.2818C35.1578 27.4023 34.5294 27.3404 33.9584 27.1039C33.3874 26.8674 32.8993 26.4669 32.556 25.953C32.2126 25.4391 32.0293 24.8349 32.0293 24.2168C32.0302 23.3883 32.3598 22.594 32.9456 22.0081C33.5315 21.4223 34.3258 21.0927 35.1543 21.0918Z" fill="#E6F3F4"/>
<path d="M14.833 22.6543C18.1253 22.6543 20.9132 21.624 22.8953 19.6749C24.7494 17.8517 25.7705 15.3029 25.7705 12.498C25.7705 9.69316 24.7494 7.14443 22.8953 5.32119C20.9132 3.37207 18.1253 2.3418 14.833 2.3418C11.5407 2.3418 8.75283 3.37207 6.7708 5.32109C4.9166 7.14443 3.89551 9.69316 3.89551 12.498C3.89551 15.3029 4.9166 17.8517 6.7708 19.675C8.75283 21.624 11.541 22.6543 14.833 22.6543ZM19.5205 10.1543C19.675 10.1543 19.8261 10.2001 19.9545 10.286C20.083 10.3718 20.1832 10.4938 20.2423 10.6366C20.3014 10.7793 20.3169 10.9364 20.2867 11.088C20.2566 11.2395 20.1822 11.3787 20.0729 11.488C19.9637 11.5972 19.8245 11.6716 19.6729 11.7018C19.5214 11.7319 19.3643 11.7165 19.2215 11.6573C19.0788 11.5982 18.9568 11.4981 18.8709 11.3696C18.7851 11.2411 18.7393 11.0901 18.7393 10.9355C18.7393 10.7283 18.8216 10.5296 18.9681 10.3831C19.1146 10.2366 19.3133 10.1543 19.5205 10.1543ZM10.1455 10.1543C10.3 10.1543 10.4511 10.2001 10.5795 10.286C10.708 10.3718 10.8082 10.4938 10.8673 10.6366C10.9264 10.7793 10.9419 10.9364 10.9117 11.088C10.8816 11.2395 10.8072 11.3787 10.6979 11.488C10.5887 11.5972 10.4495 11.6716 10.2979 11.7018C10.1464 11.7319 9.98929 11.7165 9.84654 11.6573C9.70378 11.5982 9.58177 11.4981 9.49592 11.3696C9.41008 11.2411 9.36426 11.0901 9.36426 10.9355C9.36426 10.7283 9.44657 10.5296 9.59308 10.3831C9.73959 10.2366 9.93831 10.1543 10.1455 10.1543ZM9.36426 14.4512C9.57146 14.4512 9.77017 14.5335 9.91669 14.68C10.0632 14.8265 10.1455 15.0252 10.1455 15.2324C10.1455 16.9713 11.8378 18.4185 14.0518 18.6982V16.2188C13.9691 16.1776 13.8898 16.1299 13.8146 16.0763L12.4883 15.1298C12.245 14.9532 12.0472 14.7212 11.9115 14.453C11.7757 14.1847 11.7058 13.888 11.7076 13.5874C11.7076 12.556 12.5146 11.7168 13.5066 11.7168H16.1586C17.1506 11.7168 17.9576 12.556 17.9576 13.5874C17.9594 13.888 17.8895 14.1847 17.7538 14.453C17.618 14.7212 17.4203 14.9532 17.177 15.1298L15.8511 16.076C15.7759 16.1296 15.6966 16.1772 15.614 16.2185V18.6982C17.8279 18.4185 19.5202 16.9713 19.5202 15.2324C19.5202 15.0252 19.6025 14.8265 19.749 14.68C19.8956 14.5335 20.0943 14.4512 20.3015 14.4512C20.5087 14.4512 20.7074 14.5335 20.8539 14.68C21.0004 14.8265 21.0827 15.0252 21.0827 15.2324C21.0827 18.0325 18.279 20.3105 14.8327 20.3105C11.3864 20.3105 8.58272 18.0325 8.58272 15.2324C8.58272 15.1298 8.60293 15.0282 8.64221 14.9334C8.68149 14.8386 8.73906 14.7524 8.81164 14.6799C8.88422 14.6073 8.97038 14.5498 9.0652 14.5106C9.16002 14.4713 9.26164 14.4511 9.36426 14.4512Z" fill="#E6F3F4"/>
<path d="M35.1543 25.7793C36.0172 25.7793 36.7168 25.0797 36.7168 24.2168C36.7168 23.3539 36.0172 22.6543 35.1543 22.6543C34.2914 22.6543 33.5918 23.3539 33.5918 24.2168C33.5918 25.0797 34.2914 25.7793 35.1543 25.7793Z" fill="#E6F3F4"/>
<path d="M14.9439 14.8041L16.2698 13.858C16.3104 13.8258 16.3429 13.7846 16.3647 13.7376C16.3866 13.6906 16.3972 13.6392 16.3957 13.5874C16.3957 13.4204 16.2874 13.2793 16.1591 13.2793H13.5072C13.3791 13.2793 13.2707 13.4204 13.2707 13.5874C13.2691 13.6392 13.2797 13.6906 13.3015 13.7376C13.3233 13.7846 13.3559 13.8258 13.3964 13.858L14.7223 14.8041C14.7541 14.8286 14.793 14.8418 14.8331 14.8418C14.8732 14.8418 14.9121 14.8286 14.9439 14.8041Z" fill="#E6F3F4"/>
<path d="M20.4556 23.14C22.2056 25.1928 23.2767 28.1248 23.4189 31.3024C24.9237 31.5101 26.2646 32.3203 27.244 33.5132C27.891 33.3652 28.4742 33.0155 28.9095 32.5146C29.3448 32.0136 29.6097 31.3873 29.6659 30.7261L29.5956 29.7248C29.1747 25.8857 27.0663 22.9675 23.4876 21.2529C22.5821 22.0371 21.559 22.6739 20.4556 23.14Z" fill="#E6F3F4"/>
<path d="M26.1788 7.27809C26.6974 6.97477 27.139 6.55591 27.4694 6.05409C27.7997 5.55227 28.0099 4.98102 28.0835 4.38476C28.157 3.78849 28.0921 3.18329 27.8937 2.61621C27.6953 2.04913 27.3688 1.53546 26.9395 1.11514C26.5102 0.69482 25.9898 0.379185 25.4186 0.192779C24.8475 0.00637273 24.241 -0.0457809 23.6465 0.040374C23.0519 0.126529 22.4852 0.34867 21.9905 0.689523C21.4957 1.03038 21.0863 1.48075 20.7939 2.00563C21.9786 2.54965 23.0602 3.29456 23.9909 4.20739C24.893 5.09616 25.6333 6.13526 26.1788 7.27809Z" fill="#E6F3F4"/>
<path d="M35.1538 12.2979L31.1855 17.9668H39.1221L35.1538 12.2979Z" fill="#E6F3F4"/>
<path d="M8.87172 2.00571C8.57941 1.48082 8.16996 1.03043 7.67522 0.689559C7.18048 0.348692 6.61377 0.12654 6.01918 0.0403784C5.42459 -0.0457828 4.81814 0.00636962 4.24699 0.19278C3.67584 0.37919 3.15539 0.694833 2.72611 1.11516C2.29683 1.53549 1.97028 2.04918 1.77188 2.61627C1.57347 3.18337 1.50855 3.78858 1.58217 4.38486C1.65578 4.98113 1.86594 5.55239 2.1963 6.0542C2.52667 6.55602 2.96834 6.97487 3.48695 7.27817C4.03235 6.13532 4.77269 5.09622 5.67475 4.20747C6.60539 3.29459 7.68701 2.54968 8.87172 2.00571Z" fill="#E6F3F4"/>
<path d="M22.6543 43.748C25.2431 43.748 27.3418 41.2996 27.3418 38.2793C27.3418 35.259 25.2431 32.8105 22.6543 32.8105C20.0655 32.8105 17.9668 35.259 17.9668 38.2793C17.9668 41.2996 20.0655 43.748 22.6543 43.748Z" fill="#E6F3F4"/>
<path d="M31.2479 36.7168V33.5918H30.0409C29.5186 34.174 28.8597 34.6172 28.1235 34.8814C28.4094 35.4639 28.6188 36.0807 28.7466 36.7168H31.2479Z" fill="#E6F3F4"/>
<path d="M21.8547 31.3078C21.7054 28.2459 20.6107 25.4718 18.8475 23.6992C17.5385 24.051 16.1881 24.2252 14.8327 24.2171C13.4819 24.2251 12.1361 24.0521 10.8312 23.7028C9.07334 25.4759 7.97881 28.2612 7.82861 31.3079C10.8984 31.7512 13.279 34.7075 13.279 38.2796C13.2827 39.4341 13.0264 40.5746 12.529 41.6165C13.2425 41.9905 14.036 42.1858 14.8415 42.1858C15.647 42.1858 16.4405 41.9905 17.154 41.6165C16.6567 40.5746 16.4003 39.4341 16.404 38.2796C16.404 34.7073 18.7848 31.751 21.8547 31.3078Z" fill="#E6F3F4"/>
<path d="M7.0293 43.748C9.61813 43.748 11.7168 41.2996 11.7168 38.2793C11.7168 35.259 9.61813 32.8105 7.0293 32.8105C4.44046 32.8105 2.3418 35.259 2.3418 38.2793C2.3418 41.2996 4.44046 43.748 7.0293 43.748Z" fill="#E6F3F4"/>
<path d="M35.9355 39.8418H45.3105V30.4668H35.9355V39.8418ZM37.5806 37.1486L39.9243 32.4611C39.9892 32.3314 40.0889 32.2223 40.2124 32.146C40.3358 32.0697 40.478 32.0294 40.623 32.0294C40.7681 32.0294 40.9103 32.0697 41.0337 32.146C41.1571 32.2223 41.2569 32.3314 41.3218 32.4611L43.6655 37.1486C43.7251 37.2677 43.7532 37.4001 43.7472 37.5331C43.7413 37.6662 43.7014 37.7955 43.6314 37.9087C43.5613 38.022 43.4635 38.1155 43.3472 38.1804C43.2309 38.2452 43.1 38.2793 42.9668 38.2793H38.2793C38.1461 38.2793 38.0152 38.2452 37.8989 38.1804C37.7825 38.1155 37.6847 38.022 37.6147 37.9087C37.5447 37.7955 37.5048 37.6662 37.4989 37.5331C37.4929 37.4001 37.521 37.2677 37.5806 37.1486Z" fill="#E6F3F4"/>
<path d="M6.26445 31.3023C6.40752 28.14 7.47978 25.1994 9.22461 23.1461C8.11579 22.6794 7.08766 22.0405 6.17822 21.2529C2.59961 22.9674 0.491113 25.8856 0.0701172 29.7244L0 30.7258C0.0564557 31.3896 0.323166 32.0181 0.761357 32.5199C1.19955 33.0217 1.78637 33.3707 2.43652 33.5161C3.41592 32.3221 4.7583 31.5102 6.26445 31.3023Z" fill="#E6F3F4"/>
<path d="M40.6227 34.5576L39.543 36.7169H41.7023L40.6227 34.5576Z" fill="#E6F3F4"/>
<path d="M31.2283 30.6729C31.2307 30.7081 31.2307 30.7435 31.2283 30.7787C31.2002 31.2055 31.1134 31.6263 30.9702 32.0293H32.0291C32.2363 32.0293 32.435 32.1116 32.5815 32.2581C32.728 32.4046 32.8104 32.6033 32.8104 32.8105V37.498C32.8104 37.7052 32.728 37.904 32.5815 38.0505C32.435 38.197 32.2363 38.2793 32.0291 38.2793H28.9041C28.9039 38.8041 28.8511 39.3275 28.7466 39.8418H34.3729V30.4668H31.214L31.2283 30.6729Z" fill="#E6F3F4"/>
</svg>
