<svg width="45" height="42" viewBox="0 0 45 42" fill="none" xmlns="http://www.w3.org/2000/svg">
<path d="M29.4434 23.7968C29.4434 25.8182 31.0879 27.4627 33.1092 27.4627H44.9991V20.1309H33.1093C31.0879 20.1309 29.4434 21.7754 29.4434 23.7968ZM35.114 23.9045C35.114 24.7207 34.4523 25.3823 33.6362 25.3823C32.82 25.3823 32.1584 24.7207 32.1584 23.9045C32.1584 23.0883 32.82 22.4267 33.6362 22.4267C34.4523 22.4268 35.114 23.0884 35.114 23.9045Z" fill="#038992"/>
<path d="M33.11 30.2999C29.5233 30.2999 26.6053 27.3818 26.6053 23.7951C26.6053 20.2084 29.5234 17.2903 33.11 17.2903H44.9999V12.3367C44.9999 8.98586 42.2738 6.25977 38.923 6.25977H6.07692C2.7261 6.25977 0 8.98586 0 12.3367V35.0771C0 38.4279 2.7261 41.154 6.07692 41.154H38.9231C42.2739 41.154 45 38.4279 45 35.0771V30.2999H33.11Z" fill="#038992"/>
<path d="M6.07604 3.42242C41.7795 3.42242 39.2207 3.39296 40.0046 3.48824C39.0307 1.42865 36.9335 0 34.5082 0H6.07604C2.81322 0 0.143899 2.58504 0.00585938 5.81442C1.59863 4.33129 3.73301 3.42242 6.07604 3.42242Z" fill="#E6F3F4"/>
</svg>
